<?xml version="1.0" encoding="UTF-8"?>
<svg id="Layer_1" data-name="Layer 1" xmlns="http://www.w3.org/2000/svg" viewBox="0 0 208.31 211.58">
  <defs>
    <style>
      .cls-1 {
        fill: #2d4051;
      }
    </style>
  </defs>
  <path class="cls-1" d="M205.86,74.12c-2.04-2.87-5.08-4.77-8.55-5.35l-7.42-1.25,5.94-42.71c.64-4.62-2.6-8.91-7.22-9.55L79.4.08c-4.62-.64-8.91,2.6-9.55,7.22l-2.59,18.66-27.35-3.4c-4.63-.57-8.87,2.72-9.44,7.35l-6.03,48.45h-14.84c-2.85,0-5.53,1.25-7.36,3.44-1.83,2.19-2.58,5.05-2.08,7.85l1.59,8.78,17.4,103.99c.89,5.3,5.43,9.15,10.81,9.15h149.68c2.42,0,4.7-1.06,6.25-2.92,1.03-1.22,1.65-2.7,1.84-4.24l.15.02,20.25-120.48c.58-3.47-.22-6.97-2.26-9.83ZM76.79,8.26c.07-.52.39-.83.57-.97.18-.14.56-.36,1.08-.28l109.21,15.18c.8.11,1.36.85,1.25,1.65l-14.42,103.76-4.3-24.23c-.93-5.23-5.46-9.02-10.77-9.02h-8.8l6.07-48.74c.28-2.24-.33-4.46-1.72-6.25-1.39-1.78-3.39-2.92-5.63-3.2l-75.12-9.35,2.58-18.56ZM37.41,30.77c.1-.8.83-1.37,1.63-1.27l109.42,13.62c.52.06.83.37.97.55.14.18.36.56.3,1.08l-6.18,49.6h-76.49c-1.01,0-1.99-.41-2.7-1.13l-10.82-11.03c-2.4-2.44-5.73-3.84-9.15-3.84h-12.9l5.92-47.59ZM180.52,204.16c-.13.15-.42.42-.89.42H29.95c-1.94,0-3.58-1.39-3.9-3.31L8.64,97.23l-1.59-8.83c-.19-1.04.27-1.77.56-2.12.29-.35.93-.93,1.99-.93h34.8c1.55,0,3.07.64,4.15,1.74l10.82,11.03c2.01,2.05,4.82,3.23,7.69,3.23h92.34c1.91,0,3.54,1.37,3.87,3.25l17.5,98.61c.08.46-.12.79-.25.95ZM201.22,82.8l-16.88,100.43-5.9-33.28,10.49-75.49,7.22,1.21c1.63.27,3.05,1.17,4.01,2.51.96,1.35,1.34,2.98,1.06,4.61Z"/>
  <rect class="cls-1" x="87.83" y="16.09" width="7" height="80.77" transform="translate(22.82 139.17) rotate(-82.09)"/>
  <rect class="cls-1" x="85.2" y="32.89" width="7" height="80.77" transform="translate(3.92 151.04) rotate(-82.09)"/>
</svg>