<?xml version="1.0" encoding="UTF-8"?>
<svg id="Layer_1" data-name="Layer 1" xmlns="http://www.w3.org/2000/svg" viewBox="0 0 250.33 175.06">
  <defs>
    <style>
      .cls-1 {
        fill: #2d4051;
      }
    </style>
  </defs>
  <path class="cls-1" d="M155.28,158.44h-46.94v-24.33h26.72v-7H9.72c-1.5,0-2.72-1.22-2.72-2.72V9.72c0-1.5,1.22-2.72,2.72-2.72h190.22c1.5,0,2.72,1.22,2.72,2.72v32h7V9.72c0-5.36-4.36-9.72-9.72-9.72H9.72C4.36,0,0,4.36,0,9.72v114.67c0,5.36,4.36,9.72,9.72,9.72h91.61v24.33h-48.94c-1.93,0-3.5,1.57-3.5,3.5s1.57,3.5,3.5,3.5h102.89c1.93,0,3.5-1.57,3.5-3.5s-1.57-3.5-3.5-3.5Z"/>
  <path class="cls-1" d="M249.47,169.26l-29.84-34.22c10.26-9.75,16.68-23.52,16.68-38.76,0-29.5-24-53.5-53.5-53.5s-53.5,24-53.5,53.5,24,53.5,53.5,53.5c11.74,0,22.61-3.81,31.44-10.25l29.94,34.34c.69.79,1.66,1.2,2.64,1.2.82,0,1.64-.28,2.3-.86,1.46-1.27,1.61-3.48.34-4.94ZM136.31,96.28c0-25.64,20.86-46.5,46.5-46.5s46.5,20.86,46.5,46.5-20.86,46.5-46.5,46.5-46.5-20.86-46.5-46.5Z"/>
  <path class="cls-1" d="M123.72,65.46l-10.98,21.42-11.27-48.42c-.36-1.53-1.7-2.66-3.27-2.75l-2.67-.1-20.35,56.82-5.16-34.21c-.22-1.45-1.28-2.61-2.71-2.95l-2.38-.52-16.8,23.62h-27.53c-1.93,0-3.5,1.57-3.5,3.5s1.57,3.5,3.5,3.5h31.14l12.62-17.74,5.85,38.81c.25,1.68,1.6,2.97,3.29,3.13.12.01.24.02.36.02,1.55,0,2.95-.97,3.47-2.45l19.95-55.71,10.72,46.06c.35,1.47,1.58,2.58,3.08,2.76,1.5.19,2.96-.6,3.65-1.94l15.19-29.65c.88-1.72.2-3.83-1.52-4.71-1.72-.88-3.83-.2-4.71,1.52Z"/>
  <path class="cls-1" d="M223.98,97.79l1.88-2.44-2.19-2.17c-13.33-13.26-27.26-19.95-41.45-19.92-.12,0-.24,0-.36,0-.52,0-1.03.02-1.54.06-.19,0-.39,0-.58.01-22.74,1.3-37.44,19.39-38.06,20.16l-1.88,2.35,2.04,2.21c11.86,12.84,24.35,19.89,37.19,21.07.93.11,1.87.18,2.82.18.08,0,.16,0,.23,0,.27,0,.55.03.82.03.64,0,1.28-.01,1.91-.04,23.16-1.04,38.49-20.64,39.13-21.47ZM181.98,112.28c-.62-.02-1.25-.05-1.87-.1-8.01-.88-14.26-7.68-14.26-15.92s6.86-15.66,15.4-15.99c.27,0,.55-.02.82-.02,8.74.11,15.81,7.25,15.81,16.01s-7.13,15.96-15.91,16.02ZM161.1,86.34c-1.44,3.01-2.25,6.37-2.25,9.93,0,3.11.62,6.07,1.74,8.77-3.83-2.5-7.62-5.64-11.38-9.44,2.28-2.33,6.4-6.06,11.89-9.26ZM202.22,107.01c1.7-3.21,2.67-6.86,2.67-10.74s-.96-7.49-2.64-10.68c4.74,2.54,9.45,5.96,14.12,10.29-2.59,2.77-7.53,7.47-14.16,11.13Z"/>
  <path class="cls-1" d="M181.87,86.64c-4.98,0-9.02,4.04-9.02,9.02s4.04,9.02,9.02,9.02c.61,0,1.21-.06,1.79-.18-1.08-.82-1.79-2.11-1.79-3.58,0-2.49,2.02-4.51,4.51-4.51,1.71,0,3.18.96,3.95,2.37.36-.97.57-2.02.57-3.12,0-4.98-4.04-9.02-9.02-9.02Z"/>
</svg>