<?xml version="1.0" encoding="UTF-8"?>
<svg id="Layer_1" xmlns="http://www.w3.org/2000/svg" version="1.1" viewBox="0 0 188.56 194.63">
  <!-- Generator: Adobe Illustrator 29.7.1, SVG Export Plug-In . SVG Version: 2.1.1 Build 8)  -->
  <defs>
    <style>
      .st0 {
        fill: #2d4051;
      }
    </style>
  </defs>
  <path class="st0" d="M184.5,0H4.06C1.82,0,0,1.82,0,4.06v157.78c0,2.24,1.82,4.05,4.06,4.05h111.33c1.93,0,3.5-1.57,3.5-3.5s-1.57-3.5-3.5-3.5H7V43h154.94c1.93,0,3.5-1.57,3.5-3.5s-1.57-3.5-3.5-3.5H7V7h174.56v151.89h-10.94c-1.93,0-3.5,1.57-3.5,3.5s1.57,3.5,3.5,3.5h13.89c2.24,0,4.06-1.82,4.06-4.05V4.06c0-2.24-1.82-4.06-4.06-4.06Z"/>
  <path class="st0" d="M25.28,67.89h38.44c1.93,0,3.5-1.57,3.5-3.5s-1.57-3.5-3.5-3.5H25.28c-1.93,0-3.5,1.57-3.5,3.5s1.57,3.5,3.5,3.5Z"/>
  <path class="st0" d="M25.28,92.11h74.67c1.93,0,3.5-1.57,3.5-3.5s-1.57-3.5-3.5-3.5H25.28c-1.93,0-3.5,1.57-3.5,3.5s1.57,3.5,3.5,3.5Z"/>
  <path class="st0" d="M25.28,116.33h73.78c1.93,0,3.5-1.57,3.5-3.5s-1.57-3.5-3.5-3.5H25.28c-1.93,0-3.5,1.57-3.5,3.5s1.57,3.5,3.5,3.5Z"/>
  <path class="st0" d="M25.28,140.56h75.11c1.93,0,3.5-1.57,3.5-3.5s-1.57-3.5-3.5-3.5H25.28c-1.93,0-3.5,1.57-3.5,3.5s1.57,3.5,3.5,3.5Z"/>
  <path class="st0" d="M28.75,23.24c0,.66.54,1.2,1.2,1.2s1.2-.54,1.2-1.2-.54-1.2-1.2-1.2-1.2.54-1.2,1.2Z"/>
  <path class="st0" d="M25.25,23.24c0,2.59,2.11,4.7,4.7,4.7s4.7-2.11,4.7-4.7-2.11-4.7-4.7-4.7-4.7,2.11-4.7,4.7ZM32.25,23.24c0,1.27-1.03,2.3-2.3,2.3s-2.3-1.03-2.3-2.3,1.03-2.3,2.3-2.3,2.3,1.03,2.3,2.3Z"/>
  <path class="st0" d="M53.26,23.24c0,.66.54,1.2,1.2,1.2s1.2-.54,1.2-1.2-.54-1.2-1.2-1.2-1.2.54-1.2,1.2Z"/>
  <path class="st0" d="M49.76,23.24c0,2.59,2.11,4.7,4.7,4.7s4.7-2.11,4.7-4.7-2.11-4.7-4.7-4.7-4.7,2.11-4.7,4.7ZM56.76,23.24c0,1.27-1.03,2.3-2.3,2.3s-2.3-1.03-2.3-2.3,1.03-2.3,2.3-2.3,2.3,1.03,2.3,2.3Z"/>
  <path class="st0" d="M77.78,23.24c0,.66.54,1.2,1.2,1.2s1.2-.54,1.2-1.2-.54-1.2-1.2-1.2-1.2.54-1.2,1.2Z"/>
  <path class="st0" d="M74.28,23.24c0,2.59,2.11,4.7,4.7,4.7s4.7-2.11,4.7-4.7-2.11-4.7-4.7-4.7-4.7,2.11-4.7,4.7ZM81.28,23.24c0,1.27-1.03,2.3-2.3,2.3s-2.3-1.03-2.3-2.3,1.03-2.3,2.3-2.3,2.3,1.03,2.3,2.3Z"/>
  <path class="st0" d="M146.42,61.72c-.76-.91-1.88-1.44-3.07-1.44s-2.31.52-3.07,1.44l-16.73,20.07c-1.71,2.06-2.66,4.66-2.66,7.34v91.49c0,7.73,6.29,14.02,14.02,14.02h16.89c7.73,0,14.02-6.29,14.02-14.02v-91.49c0-2.68-.94-5.28-2.66-7.34l-16.73-20.07ZM128.92,86.27l14.43-17.3,14.43,17.3c.67.8,1.04,1.81,1.04,2.86v74.5h-30.93v-74.5c0-1.04.37-2.06,1.04-2.86ZM151.8,187.63h-16.89c-3.87,0-7.02-3.15-7.02-7.02v-9.98h30.93v9.98c0,3.87-3.15,7.02-7.02,7.02Z"/>
  <path class="st0" d="M143.35,150.63c1.93,0,3.5-1.57,3.5-3.5v-38.96c0-1.93-1.57-3.5-3.5-3.5s-3.5,1.57-3.5,3.5v38.96c0,1.93,1.57,3.5,3.5,3.5Z"/>
</svg>