<?xml version="1.0" encoding="UTF-8"?>
<svg id="Layer_1" data-name="Layer 1" xmlns="http://www.w3.org/2000/svg" viewBox="0 0 240.4 206.15">
  <defs>
    <style>
      .cls-1 {
        fill: #2d4051;
      }
    </style>
  </defs>
  <path class="cls-1" d="M240.4,51.69c0-.45-.04-.89-.07-1.33v-30.23C240.33,9.05,231.32.04,220.24.04H73.17c-.49-.05-.92-.05-1.29,0H20.09C9.01.04,0,9.05,0,20.13v165.93c0,11.08,9.01,20.09,20.09,20.09h200.15c11.08,0,20.09-9.01,20.09-20.09V51.69h.07ZM233.33,20.13v16.29c-3.51-3-8.06-4.82-13.03-4.82h-119.01c-7.14-12.26-12.87-19.89-17.37-24.56h136.31c7.22,0,13.09,5.87,13.09,13.09ZM20.09,7.04h52.46c.99.27,7.47,2.84,20.6,24.56H20.16c-5.03,0-9.63,1.87-13.16,4.94v-16.41c0-7.22,5.87-13.09,13.09-13.09ZM220.24,199.15H20.09c-7.22,0-13.09-5.87-13.09-13.09V51.69h.07c0-7.22,5.87-13.09,13.09-13.09h200.15c6.77,0,12.36,5.17,13.03,11.76v135.7c0,7.22-5.87,13.09-13.09,13.09Z"/>
  <circle class="cls-1" cx="26.08" cy="20.25" r="5.16" transform="translate(-3.96 6.53) rotate(-13.28)"/>
  <circle class="cls-1" cx="44.39" cy="20.25" r="5.16" transform="translate(-1.32 37.32) rotate(-45)"/>
  <circle class="cls-1" cx="62.69" cy="20.25" r="5.16"/>
  <path class="cls-1" d="M120.3,45.83s-.04,0-.06,0c0,0-.01,0-.02,0-.01,0-.03,0-.04,0-39.05,0-70.83,31.77-70.83,70.83s31.77,70.83,70.83,70.83,70.83-31.77,70.83-70.83-31.7-70.75-70.7-70.82ZM152.02,139.39c.94-6.06,1.53-12.51,1.68-19.23h30.2c-.65,11.94-4.59,23.01-10.94,32.33-3.48-5.46-10.9-10.02-20.94-13.1ZM67.38,152.49c-6.35-9.32-10.29-20.39-10.94-32.33h30.33c.15,6.71.73,13.14,1.67,19.19-10.1,3.08-17.57,7.66-21.07,13.14ZM88.44,93.94c-.94,6.06-1.52,12.5-1.66,19.21h-30.33c.65-11.96,4.61-23.05,10.97-32.38,3.48,5.49,10.92,10.08,21.02,13.17ZM123.67,98.17c7.82-.2,15.1-1.06,21.59-2.47.8,5.43,1.3,11.26,1.44,17.45h-23.03v-14.98ZM123.67,91.17v-37.73c8.24,2.86,16.31,15.8,20.36,35.34-5.96,1.32-12.83,2.18-20.36,2.38ZM116.67,53.48v37.68c-7.49-.21-14.31-1.07-20.23-2.38,4.03-19.44,12.04-32.35,20.23-35.3ZM116.67,98.17v14.99h-22.89c.14-6.2.64-12.03,1.44-17.45,6.45,1.4,13.68,2.26,21.45,2.46ZM93.77,120.16h22.89v14.99c-7.76.2-15,1.05-21.44,2.45-.8-5.42-1.31-11.25-1.45-17.44ZM116.67,142.15v37.6c-8.18-2.95-16.18-15.84-20.22-35.24,5.92-1.3,12.74-2.16,20.22-2.36ZM123.67,179.79v-37.64c7.53.21,14.39,1.07,20.35,2.39-4.06,19.49-12.12,32.39-20.35,35.25ZM123.67,135.14v-14.99h23.03c-.14,6.2-.65,12.04-1.45,17.47-6.48-1.41-13.76-2.28-21.57-2.48ZM153.69,113.16c-.15-6.72-.72-13.15-1.66-19.21,10.03-3.07,17.46-7.62,20.96-13.07,6.32,9.31,10.25,20.36,10.9,32.28h-30.2ZM168.14,74.63c-.83,4.49-7.2,9.13-17.38,12.36-2.87-13.5-7.68-24.62-13.72-31.88,12.21,3.35,22.97,10.25,31.1,19.51ZM103.47,55.06c-6.06,7.26-10.87,18.39-13.76,31.93-10.28-3.26-16.67-7.96-17.41-12.49,8.15-9.25,18.93-16.12,31.16-19.44ZM72.25,158.75c.79-4.52,7.2-9.2,17.47-12.45,2.9,13.57,7.74,24.73,13.83,31.98-12.3-3.32-23.13-10.23-31.31-19.53ZM136.95,178.23c6.07-7.24,10.89-18.36,13.78-31.89,10.2,3.24,16.56,7.91,17.35,12.41-8.14,9.26-18.91,16.14-31.13,19.48Z"/>
</svg>