<?xml version="1.0" encoding="UTF-8"?>
<svg id="Layer_1" xmlns="http://www.w3.org/2000/svg" version="1.1" viewBox="0 0 201.11 196.04">
  <!-- Generator: Adobe Illustrator 29.7.1, SVG Export Plug-In . SVG Version: 2.1.1 Build 8)  -->
  <defs>
    <style>
      .st0 {
        fill: #2d4051;
      }
    </style>
  </defs>
  <path class="st0" d="M183.2,80.3h-64.2V17.57c0-9.69-7.88-17.57-17.57-17.57H17.57C7.88,0,0,7.88,0,17.57v80.59c0,9.69,7.88,17.57,17.57,17.57h64.2v62.72c0,9.69,7.88,17.57,17.57,17.57h83.85c9.69,0,17.57-7.88,17.57-17.57v-80.59c0-9.69-7.88-17.57-17.57-17.57ZM7,98.17V17.57c0-5.83,4.74-10.57,10.57-10.57h83.85c5.83,0,10.57,4.74,10.57,10.57v80.59c0,5.83-4.74,10.57-10.57,10.57H17.57c-5.83,0-10.57-4.74-10.57-10.57ZM193.78,178.46c0,5.83-4.74,10.57-10.57,10.57h-83.85c-5.83,0-10.57-4.74-10.57-10.57v-62.72h12.65c9.69,0,17.57-7.88,17.57-17.57v-10.87h64.2c5.83,0,10.57,4.74,10.57,10.57v80.59Z"/>
  <path class="st0" d="M87.75,94.46c1.8-.71,2.68-2.74,1.97-4.54L63.36,23.3c-.63-1.59-2.14-2.62-3.85-2.62-.01,0-.02,0-.03,0-1.72.01-3.22,1.06-3.83,2.67-1.37,3.64-8.53,22.62-14.86,39.25-8.08,21.23-10,26-10.4,26.87-.83,1.45-.53,3.32.79,4.43,1.48,1.24,3.69,1.04,4.93-.45.52-.63.77-.93,10.36-26.1h26.78l9.95,25.15c.54,1.38,1.86,2.21,3.26,2.21.43,0,.86-.08,1.29-.25ZM49.14,60.34c3.89-10.25,7.86-20.75,10.44-27.58l10.91,27.58h-21.35Z"/>
  <path class="st0" d="M171.35,110.22h-27.46v-6.87c0-1.93-1.57-3.5-3.5-3.5s-3.5,1.57-3.5,3.5v6.87h-10.13c-1.93,0-3.5,1.57-3.5,3.5s1.57,3.5,3.5,3.5h28.05c-1.62,5.96-5.74,17.65-15.06,29.14-6.31-7.37-9.88-13.51-9.95-13.64-.96-1.68-3.1-2.26-4.77-1.3-1.68.96-2.26,3.1-1.3,4.78.33.57,4.31,7.42,11.3,15.47-6.33,6.49-14.5,12.61-25.06,17.21-1.77.77-2.58,2.84-1.81,4.61.57,1.32,1.86,2.1,3.21,2.1.47,0,.94-.09,1.4-.29,11.41-4.98,20.26-11.49,27.12-18.4,7.06,7.13,16.23,14.34,27.14,18.46.41.15.83.23,1.24.23,1.41,0,2.75-.86,3.27-2.26.68-1.81-.23-3.83-2.04-4.51-9.88-3.73-18.33-10.48-24.86-17.13,11.66-13.94,16.03-28.35,17.45-34.46h9.28c1.93,0,3.5-1.57,3.5-3.5s-1.57-3.5-3.5-3.5Z"/>
  <path class="st0" d="M153.26,56.53c.68.69,1.59,1.04,2.49,1.04s1.78-.34,2.46-1.01c1.37-1.36,1.39-3.58.03-4.95l-12.05-12.18,17.2,1.34h.24c.07.01,7.14.16,11.6,5.14,3.1,3.47,4.34,8.6,3.69,15.25-.19,1.92,1.22,3.64,3.14,3.83.12.01.23.02.35.02,1.78,0,3.3-1.35,3.48-3.16.86-8.73-1-15.68-5.51-20.67-6.19-6.86-15.2-7.35-16.55-7.39l-16.91-1.32,14.08-9.3c1.61-1.06,2.06-3.24.99-4.85-1.07-1.61-3.24-2.06-4.85-.99l-20.31,13.41c-1.37.87-2.25,2.3-2.43,3.91s.37,3.2,1.51,4.35l17.35,17.54Z"/>
  <path class="st0" d="M46.29,138.75c-1.36-1.37-3.58-1.39-4.95-.03-1.37,1.36-1.39,3.58-.03,4.95l12.05,12.18-17.2-1.34h-.24c-.07-.01-7.14-.16-11.6-5.14-3.1-3.47-4.34-8.6-3.69-15.25.19-1.92-1.22-3.64-3.14-3.83-1.91-.18-3.64,1.22-3.83,3.14-.86,8.73,1,15.68,5.51,20.67,6.19,6.86,15.2,7.35,16.55,7.39l16.91,1.32-14.08,9.3c-1.61,1.07-2.06,3.24-.99,4.85.67,1.02,1.79,1.57,2.92,1.57.66,0,1.33-.19,1.93-.58l20.3-13.41c1.37-.87,2.25-2.3,2.43-3.91s-.37-3.2-1.51-4.35l-17.35-17.54Z"/>
</svg>